<svg xmlns="http://www.w3.org/2000/svg" fill="none" viewBox="0 0 15 8" height="8" width="15">
<path fill="#9B9B9B" d="M3.00301 3.49919C2.87868 3.6248 2.6909 3.6876 2.43968 3.6876H0.847774C0.599118 3.6876 0.412626 3.6248 0.288299 3.49919C0.163971 3.37358 0.101807 3.1826 0.101807 2.92626V1.36126C0.101807 1.10492 0.163971 0.91458 0.288299 0.790252C0.412626 0.665924 0.599118 0.60376 0.847774 0.60376H2.43968C2.6909 0.60376 2.87868 0.665924 3.00301 0.790252C3.12733 0.91458 3.1895 1.10492 3.1895 1.36126V2.92626C3.1895 3.1826 3.12733 3.37358 3.00301 3.49919ZM6.66747 3.49919C6.54315 3.6248 6.35666 3.6876 6.108 3.6876H4.51609C4.26743 3.6876 4.08094 3.6248 3.95661 3.49919C3.83229 3.37358 3.77012 3.1826 3.77012 2.92626V1.36126C3.77012 1.10492 3.83229 0.91458 3.95661 0.790252C4.08094 0.665924 4.26743 0.60376 4.51609 0.60376H6.108C6.35666 0.60376 6.54315 0.665924 6.66747 0.790252C6.7918 0.91458 6.85397 1.10492 6.85397 1.36126V2.92626C6.85397 3.1826 6.7918 3.37358 6.66747 3.49919ZM9.77247 3.6876C10.0237 3.6876 10.2115 3.6248 10.3358 3.49919C10.4601 3.37358 10.5223 3.1826 10.5223 2.92626V1.36126C10.5223 1.10492 10.4601 0.91458 10.3358 0.790252C10.2115 0.665924 10.0237 0.60376 9.77247 0.60376H8.1844C7.93318 0.60376 7.74605 0.665924 7.62301 0.790252C7.49996 0.91458 7.43844 1.10492 7.43844 1.36126V2.92626C7.43844 3.1826 7.49996 3.37358 7.62301 3.49919C7.74605 3.6248 7.93318 3.6876 8.1844 3.6876H9.77247ZM13.9153 3.49919C13.791 3.6248 13.6032 3.6876 13.352 3.6876H11.7639C11.5127 3.6876 11.3256 3.6248 11.2025 3.49919C11.0795 3.37358 11.018 3.1826 11.018 2.92626V1.36126C11.018 1.10492 11.0795 0.91458 11.2025 0.790252C11.3256 0.665924 11.5127 0.60376 11.7639 0.60376H13.352C13.6032 0.60376 13.791 0.665924 13.9153 0.790252C14.0396 0.91458 14.1018 1.10492 14.1018 1.36126V2.92626C14.1018 3.1826 14.0396 3.37358 13.9153 3.49919ZM2.43968 7.35207C2.6909 7.35207 2.87868 7.28991 3.00301 7.16558C3.12733 7.04125 3.1895 6.85092 3.1895 6.59457V5.02573C3.1895 4.76939 3.12733 4.57905 3.00301 4.45472C2.87868 4.33039 2.6909 4.26823 2.43968 4.26823H0.847774C0.599118 4.26823 0.412626 4.33039 0.288299 4.45472C0.163971 4.57905 0.101807 4.76939 0.101807 5.02573V6.59457C0.101807 6.85092 0.163971 7.04125 0.288299 7.16558C0.412626 7.28991 0.599118 7.35207 0.847774 7.35207H2.43968ZM6.66747 7.16558C6.54315 7.28991 6.35666 7.35207 6.108 7.35207H4.51609C4.26743 7.35207 4.08094 7.28991 3.95661 7.16558C3.83229 7.04125 3.77012 6.85092 3.77012 6.59457V5.02573C3.77012 4.76939 3.83229 4.57905 3.95661 4.45472C4.08094 4.33039 4.26743 4.26823 4.51609 4.26823H6.108C6.35666 4.26823 6.54315 4.33039 6.66747 4.45472C6.7918 4.57905 6.85397 4.76939 6.85397 5.02573V6.59457C6.85397 6.85092 6.7918 7.04125 6.66747 7.16558ZM9.77247 7.35207C10.0237 7.35207 10.2115 7.28991 10.3358 7.16558C10.4601 7.04125 10.5223 6.85092 10.5223 6.59457V5.02573C10.5223 4.76939 10.4601 4.57905 10.3358 4.45472C10.2115 4.33039 10.0237 4.26823 9.77247 4.26823H8.1844C7.93318 4.26823 7.74605 4.33039 7.62301 4.45472C7.49996 4.57905 7.43844 4.76939 7.43844 5.02573V6.59457C7.43844 6.85092 7.49996 7.04125 7.62301 7.16558C7.74605 7.28991 7.93318 7.35207 8.1844 7.35207H9.77247ZM13.9153 7.16558C13.791 7.28991 13.6032 7.35207 13.352 7.35207H11.7639C11.5127 7.35207 11.3256 7.28991 11.2025 7.16558C11.0795 7.04125 11.018 6.85092 11.018 6.59457V5.02573C11.018 4.76939 11.0795 4.57905 11.2025 4.45472C11.3256 4.33039 11.5127 4.26823 11.7639 4.26823H13.352C13.6032 4.26823 13.791 4.33039 13.9153 4.45472C14.0396 4.57905 14.1018 4.76939 14.1018 5.02573V6.59457C14.1018 6.85092 14.0396 7.04125 13.9153 7.16558Z" clip-rule="evenodd" fill-rule="evenodd"></path>
</svg>



