<svg xmlns="http://www.w3.org/2000/svg" fill="none" viewBox="0 0 37 37" height="37" width="37">
<path fill="#6B869A" d="M18.0847 0.847412C28.0258 0.847412 36.0847 8.90629 36.0847 18.8474C36.0847 28.7885 28.0258 36.8474 18.0847 36.8474C8.14359 36.8474 0.0847168 28.7885 0.0847168 18.8474C0.0847168 8.90629 8.14359 0.847412 18.0847 0.847412Z"></path>
<path fill="white" d="M18.0847 1.56738C8.54121 1.56738 0.804688 9.3039 0.804688 18.8474C0.804688 28.3909 8.54121 36.1274 18.0847 36.1274C27.6282 36.1274 35.3647 28.3909 35.3647 18.8474C35.3647 9.3039 27.6282 1.56738 18.0847 1.56738Z"></path>
<path fill="url(#paint0_linear)" d="M10.9711 27.4875L24.5002 13.9325L26.7248 16.1572V10.2075H20.7751L22.9998 12.4322L9.44482 25.9613L10.9711 27.4875ZM15.0582 17.3213L16.5586 15.8209L10.9711 10.2075L9.44482 11.7337L15.0582 17.3213ZM26.7248 21.5119V27.4875H20.7751L22.9998 25.2628L19.6111 21.8741L21.1114 20.3737L24.5002 23.7366L26.7248 21.5119Z" clip-rule="evenodd" fill-rule="evenodd"></path>
<defs>
<linearGradient gradientUnits="userSpaceOnUse" y2="18.8475" x2="35.3648" y1="36.1275" x1="18.0848" id="paint0_linear">
<stop stop-color="#79A8CB"></stop>
<stop stop-color="#6B869A" offset="1"></stop>
</linearGradient>
</defs>
</svg>

