<svg xmlns="http://www.w3.org/2000/svg" fill="none" viewBox="0 0 37 37" height="37" width="37">
<path fill="#6B869A" d="M18.0847 0.847412C28.0258 0.847412 36.0847 8.90629 36.0847 18.8474C36.0847 28.7885 28.0258 36.8474 18.0847 36.8474C8.14359 36.8474 0.0847168 28.7885 0.0847168 18.8474C0.0847168 8.90629 8.14359 0.847412 18.0847 0.847412Z"></path>
<path fill="white" d="M18.0847 1.56738C8.54121 1.56738 0.804688 9.3039 0.804688 18.8474C0.804688 28.3909 8.54121 36.1274 18.0847 36.1274C27.6282 36.1274 35.3647 28.3909 35.3647 18.8474C35.3647 9.3039 27.6282 1.56738 18.0847 1.56738Z"></path>
<path fill="url(#paint0_linear)" d="M12.1648 11.6475C11.0602 11.6475 10.1648 12.5429 10.1648 13.6475V16.8475C10.1648 17.952 11.0602 18.8475 12.1648 18.8475H15.3648C16.4694 18.8475 17.3648 17.952 17.3648 16.8475V13.6475C17.3648 12.5429 16.4694 11.6475 15.3648 11.6475H12.1648ZM12.1648 19.5675C11.0602 19.5675 10.1648 20.4629 10.1648 21.5675V24.7675C10.1648 25.872 11.0602 26.7675 12.1648 26.7675H15.3648C16.4694 26.7675 17.3648 25.872 17.3648 24.7675V21.5675C17.3648 20.4629 16.4694 19.5675 15.3648 19.5675H12.1648ZM18.0848 13.6475C18.0848 12.5429 18.9802 11.6475 20.0848 11.6475H23.2848C24.3894 11.6475 25.2848 12.5429 25.2848 13.6475V16.8475C25.2848 17.952 24.3894 18.8475 23.2848 18.8475H20.0848C18.9802 18.8475 18.0848 17.952 18.0848 16.8475V13.6475ZM20.0848 19.5675C18.9802 19.5675 18.0848 20.4629 18.0848 21.5675V24.7675C18.0848 25.872 18.9802 26.7675 20.0848 26.7675H23.2848C24.3894 26.7675 25.2848 25.872 25.2848 24.7675V21.5675C25.2848 20.4629 24.3894 19.5675 23.2848 19.5675H20.0848Z" clip-rule="evenodd" fill-rule="evenodd"></path>
<defs>
<linearGradient gradientUnits="userSpaceOnUse" y2="4.59291" x2="17.8933" y1="19.3759" x1="32.6763" id="paint0_linear">
<stop stop-color="#51BCF5"></stop>
<stop stop-color="#355EE7" offset="1"></stop>
</linearGradient>
</defs>
</svg>
