<svg xmlns="http://www.w3.org/2000/svg" fill="none" viewBox="0 0 37 37" height="37" width="37">
<path fill="#6B869A" d="M18.0847 0.847412C28.0258 0.847412 36.0847 8.90629 36.0847 18.8474C36.0847 28.7885 28.0258 36.8474 18.0847 36.8474C8.14359 36.8474 0.0847168 28.7885 0.0847168 18.8474C0.0847168 8.90629 8.14359 0.847412 18.0847 0.847412Z"></path>
<path fill="white" d="M18.0847 1.56738C8.54121 1.56738 0.804688 9.3039 0.804688 18.8474C0.804688 28.3909 8.54121 36.1274 18.0847 36.1274C27.6282 36.1274 35.3647 28.3909 35.3647 18.8474C35.3647 9.3039 27.6282 1.56738 18.0847 1.56738Z"></path>
<path fill="url(#paint0_linear)" d="M10.1648 15.0874C10.1648 13.9828 11.0602 13.0874 12.1648 13.0874H24.0048C25.1093 13.0874 26.0048 13.9828 26.0048 15.0874V22.6074C26.0048 23.712 25.1093 24.6074 24.0048 24.6074H12.1648C11.0602 24.6074 10.1648 23.712 10.1648 22.6074V15.0874ZM31.0448 18.8474C31.0448 19.6427 30.4 20.2874 29.6048 20.2874C28.8095 20.2874 28.1648 19.6427 28.1648 18.8474C28.1648 18.0521 28.8095 17.4074 29.6048 17.4074C30.4 17.4074 31.0448 18.0521 31.0448 18.8474ZM6.56476 20.2874C7.36005 20.2874 8.00476 19.6427 8.00476 18.8474C8.00476 18.0521 7.36005 17.4074 6.56476 17.4074C5.76947 17.4074 5.12476 18.0521 5.12476 18.8474C5.12476 19.6427 5.76947 20.2874 6.56476 20.2874Z" clip-rule="evenodd" fill-rule="evenodd"></path>
<defs>
<linearGradient gradientUnits="userSpaceOnUse" y2="38.5237" x2="0.815065" y1="18.9626" x1="-7.96484" id="paint0_linear">
<stop stop-color="#3023AE"></stop>
<stop stop-color="#C86DD7" offset="1"></stop>
</linearGradient>
</defs>
</svg>



