<svg xmlns="http://www.w3.org/2000/svg" fill="none" viewBox="0 0 37 37" height="37" width="37">
<path fill="#6B869A" d="M18.0847 0.847412C28.0258 0.847412 36.0847 8.90629 36.0847 18.8474C36.0847 28.7885 28.0258 36.8474 18.0847 36.8474C8.14359 36.8474 0.0847168 28.7885 0.0847168 18.8474C0.0847168 8.90629 8.14359 0.847412 18.0847 0.847412Z"></path>
<path fill="white" d="M18.0847 1.56738C8.54121 1.56738 0.804688 9.3039 0.804688 18.8474C0.804688 28.3909 8.54121 36.1274 18.0847 36.1274C27.6282 36.1274 35.3647 28.3909 35.3647 18.8474C35.3647 9.3039 27.6282 1.56738 18.0847 1.56738Z"></path>
<path fill="url(#paint0_linear)" d="M10.2333 11.6475L11.357 15.8034L14.5376 11.7324L10.2333 11.6475ZM26.7248 11.6749L25.5287 15.8106L22.4196 11.6847L26.7248 11.6749ZM23.5677 18.7964C23.5677 21.6496 21.2546 23.9626 18.4014 23.9626C15.5482 23.9626 13.2352 21.6496 13.2352 18.7964C13.2352 15.9431 15.5482 13.6301 18.4014 13.6301C21.2546 13.6301 23.5677 15.9431 23.5677 18.7964ZM25.4602 22.2405L26.6563 26.3763L22.3511 26.3665L25.4602 22.2405ZM11.2885 22.2405L10.1648 26.3965L14.4692 26.3116L11.2885 22.2405Z" clip-rule="evenodd" fill-rule="evenodd"></path>
<defs>
<linearGradient gradientUnits="userSpaceOnUse" y2="2.57242" x2="20.3541" y1="19.022" x1="35.0048" id="paint0_linear">
<stop stop-color="#4FD7D7"></stop>
<stop stop-color="#217D78" offset="1"></stop>
</linearGradient>
</defs>
</svg>
