<svg xmlns="http://www.w3.org/2000/svg" fill="none" viewBox="0 0 37 37" height="37" width="37">
<path fill="#6B869A" d="M18.0847 0.847412C28.0258 0.847412 36.0847 8.90629 36.0847 18.8474C36.0847 28.7885 28.0258 36.8474 18.0847 36.8474C8.14359 36.8474 0.0847168 28.7885 0.0847168 18.8474C0.0847168 8.90629 8.14359 0.847412 18.0847 0.847412Z"></path>
<path fill="white" d="M18.0847 1.56738C8.54121 1.56738 0.804688 9.3039 0.804688 18.8474C0.804688 28.3909 8.54121 36.1274 18.0847 36.1274C27.6282 36.1274 35.3647 28.3909 35.3647 18.8474C35.3647 9.3039 27.6282 1.56738 18.0847 1.56738Z"></path>
<path fill="url(#paint0_linear)" d="M28.2964 24.0314C27.9043 24.4154 27.4415 24.6074 26.9082 24.6074H9.26114C8.72781 24.6074 8.26506 24.4154 7.8729 24.0314C7.48075 23.6474 7.28467 23.1943 7.28467 22.672V15.0228C7.28467 14.5005 7.48075 14.0474 7.8729 13.6634C8.26506 13.2794 8.72781 13.0874 9.26114 13.0874H26.9082C27.4415 13.0874 27.9043 13.2794 28.2964 13.6634C28.6886 14.0474 28.8847 14.5005 28.8847 15.0228V22.672C28.8847 23.1943 28.6886 23.6474 28.2964 24.0314ZM9.26114 22.672H26.9082V15.0228H9.26114V22.672ZM10.8847 15.9674H12.3247V21.7274H10.8847V15.9674ZM15.2047 15.9674H13.7647V21.7274H15.2047V15.9674ZM16.6447 15.9674H18.0847V21.7274H16.6447V15.9674ZM23.1247 21.0074C24.3176 21.0074 25.2847 20.0403 25.2847 18.8474C25.2847 17.6545 24.3176 16.6874 23.1247 16.6874C21.9317 16.6874 20.9647 17.6545 20.9647 18.8474C20.9647 20.0403 21.9317 21.0074 23.1247 21.0074Z" clip-rule="evenodd" fill-rule="evenodd"></path>
<defs>
<linearGradient gradientUnits="userSpaceOnUse" y2="12.4297" x2="27.6515" y1="30.3674" x1="18.0847" id="paint0_linear">
<stop stop-color="#79A8CB"></stop>
<stop stop-color="#6B869A" offset="1"></stop>
</linearGradient>
</defs>
</svg>


